<svg xmlns="http://www.w3.org/2000/svg" width="1400" height="900" viewBox="0 0 1400 900"><defs><marker id="arrow" markerWidth="10" markerHeight="10" refX="8" refY="3" orient="auto" markerUnits="strokeWidth"><path d="M0,0 L0,6 L9,3 z" fill="#16005A"/></marker></defs><rect width="1400" height="900" fill="white"/><text x="70" y="72" font-family="Apple SD Gothic Neo, sans-serif" font-size="38" font-weight="700" fill="#16005A">예측형 프로젝트의 포커스 영역 상호작용</text><text x="70" y="112" font-family="Apple SD Gothic Neo, sans-serif" font-size="21" fill="#555">포커스 영역은 단계가 아니며 노력 수준이 서로 겹침</text><line x1="140" y1="690" x2="1260" y2="690" stroke="#16005A" stroke-width="5"/><line x1="140" y1="690" x2="140" y2="170" stroke="#16005A" stroke-width="5"/><path d="M70 690 Q220 470 370 690" fill="none" stroke="#16005A" stroke-width="6" stroke-dasharray="12 9"/><text x="220" y="545" text-anchor="middle" font-family="Apple SD Gothic Neo, sans-serif" font-size="22" font-weight="700" fill="#16005A">착수</text><path d="M330 690 Q480 170 630 690" fill="none" stroke="#43B8E8" stroke-width="6" stroke-dasharray="0"/><text x="480" y="395" text-anchor="middle" font-family="Apple SD Gothic Neo, sans-serif" font-size="22" font-weight="700" fill="#43B8E8">계획</text><path d="M610 690 Q760 10 910 690" fill="none" stroke="#6B48A8" stroke-width="6" stroke-dasharray="0"/><text x="760" y="315" text-anchor="middle" font-family="Apple SD Gothic Neo, sans-serif" font-size="22" font-weight="700" fill="#6B48A8">실행</text><path d="M730 690 Q880 170 1030 690" fill="none" stroke="#C54B9B" stroke-width="6" stroke-dasharray="0"/><text x="880" y="395" text-anchor="middle" font-family="Apple SD Gothic Neo, sans-serif" font-size="22" font-weight="700" fill="#C54B9B">모니터링 및 통제</text><path d="M980 690 Q1130 490 1280 690" fill="none" stroke="#16005A" stroke-width="6" stroke-dasharray="12 9"/><text x="1130" y="555" text-anchor="middle" font-family="Apple SD Gothic Neo, sans-serif" font-size="22" font-weight="700" fill="#16005A">종료</text><rect x="150" y="760" width="200" height="38" fill="#C54B9B"/><text x="250" y="787" text-anchor="middle" font-family="Apple SD Gothic Neo, sans-serif" font-size="18" font-weight="700" fill="white">엔지니어링</text><rect x="400" y="790" width="200" height="38" fill="#C54B9B"/><text x="500" y="817" text-anchor="middle" font-family="Apple SD Gothic Neo, sans-serif" font-size="18" font-weight="700" fill="white">조달</text><rect x="600" y="790" width="200" height="38" fill="#C54B9B"/><text x="700" y="817" text-anchor="middle" font-family="Apple SD Gothic Neo, sans-serif" font-size="18" font-weight="700" fill="white">시공</text><rect x="850" y="760" width="200" height="38" fill="#2B879C"/><text x="950" y="787" text-anchor="middle" font-family="Apple SD Gothic Neo, sans-serif" font-size="18" font-weight="700" fill="white">시운전</text><rect x="1030" y="790" width="200" height="38" fill="#2B879C"/><text x="1130" y="817" text-anchor="middle" font-family="Apple SD Gothic Neo, sans-serif" font-size="18" font-weight="700" fill="white">인계</text><line x1="70" y1="834" x2="1330" y2="834" stroke="#D9D5E7"/><text x="70" y="870" font-family="Apple SD Gothic Neo, sans-serif" font-size="18" fill="#666">PMBOK® Guide 8th Edition · Figure 4-13, p. 73 · 한국어 학습용 재구성</text></svg>