<svg xmlns="http://www.w3.org/2000/svg" width="1400" height="900" viewBox="0 0 1400 900"><defs><marker id="arrow" markerWidth="10" markerHeight="10" refX="8" refY="3" orient="auto" markerUnits="strokeWidth"><path d="M0,0 L0,6 L9,3 z" fill="#16005A"/></marker></defs><rect width="1400" height="900" fill="white"/><text x="70" y="72" font-family="Apple SD Gothic Neo, sans-serif" font-size="38" font-weight="700" fill="#16005A">적응형 개발 수명주기</text><text x="70" y="112" font-family="Apple SD Gothic Neo, sans-serif" font-size="21" fill="#555">각 반복의 피드백을 백로그 우선순위에 반영</text><rect x="70" y="305" width="230" height="120" rx="18" fill="#EFECF8" stroke="#6B48A8" stroke-width="3"/><text x="185.0" y="374.0" text-anchor="middle" font-family="Apple SD Gothic Neo, sans-serif" font-size="22" font-weight="700" fill="#16005A">프로젝트·제품 / 비전 정의</text><circle cx="380" cy="330" r="95" fill="none" stroke="#6B48A8" stroke-width="14" stroke-dasharray="470 130"/><text x="380" y="340" text-anchor="middle" font-family="Apple SD Gothic Neo, sans-serif" font-size="29" font-weight="700" fill="#16005A">반복 1</text><rect x="485" y="500" width="190" height="105" rx="18" fill="#FAEDF6" stroke="#C54B9B" stroke-width="3"/><text x="580.0" y="561.5" text-anchor="middle" font-family="Apple SD Gothic Neo, sans-serif" font-size="18" font-weight="700" fill="#16005A">피드백 · 백로그 우선순위</text><line x1="475" y1="330" x2="585" y2="330" stroke="#C54B9B" stroke-width="6" marker-end="url(#arrow)"/><circle cx="680" cy="330" r="95" fill="none" stroke="#6B48A8" stroke-width="14" stroke-dasharray="470 130"/><text x="680" y="340" text-anchor="middle" font-family="Apple SD Gothic Neo, sans-serif" font-size="29" font-weight="700" fill="#16005A">반복 2</text><rect x="785" y="500" width="190" height="105" rx="18" fill="#FAEDF6" stroke="#C54B9B" stroke-width="3"/><text x="880.0" y="561.5" text-anchor="middle" font-family="Apple SD Gothic Neo, sans-serif" font-size="18" font-weight="700" fill="#16005A">피드백 · 백로그 우선순위</text><line x1="775" y1="330" x2="885" y2="330" stroke="#C54B9B" stroke-width="6" marker-end="url(#arrow)"/><circle cx="980" cy="330" r="95" fill="none" stroke="#6B48A8" stroke-width="14" stroke-dasharray="470 130"/><text x="980" y="340" text-anchor="middle" font-family="Apple SD Gothic Neo, sans-serif" font-size="29" font-weight="700" fill="#16005A">반복 3</text><line x1="300" y1="365" x2="380" y2="365" stroke="#16005A" stroke-width="4" marker-end="url(#arrow)"/><line x1="70" y1="834" x2="1330" y2="834" stroke="#D9D5E7"/><text x="70" y="870" font-family="Apple SD Gothic Neo, sans-serif" font-size="18" fill="#666">PMBOK® Guide 8th Edition · Figure 4-6, p. 63 · 한국어 학습용 재구성</text></svg>